<?xml version="1.0" encoding="UTF-8"?>
<svg width="16px" height="16px" viewBox="0 0 16 16" version="1.1" xmlns="http://www.w3.org/2000/svg" xmlns:xlink="http://www.w3.org/1999/xlink">
    <title>-mockplus-</title>
    <g id="WinStore" stroke="none" stroke-width="1" fill="none" fill-rule="evenodd">
        <g id="展开菜单-搜索功能" transform="translate(-16.000000, -185.000000)" fill-rule="nonzero">
            <g id="侧栏内容" transform="translate(0.000000, 127.000000)">
                <g id="-mockplus-" transform="translate(0.000000, 44.000000)">
                    <g id="-mockplus-" transform="translate(16.000000, 14.000000)">
                        <g id="1.通用/2.Icon图标/WinCloud/存储" transform="translate(1.000000, 1.000000)">
                            <path d="M11.953125,7.328125 C12.7815521,7.328125 13.453125,7.99969788 13.453125,8.828125 L13.453125,8.828125 L13.453125,11.984375 C13.453125,12.8128021 12.7815521,13.484375 11.953125,13.484375 L11.953125,13.484375 L8.796875,13.484375 C7.96844788,13.484375 7.296875,12.8128021 7.296875,11.984375 L7.296875,11.984375 L7.296875,8.828125 C7.296875,7.99969788 7.96844788,7.328125 8.796875,7.328125 L8.796875,7.328125 Z M5.046875,7.328125 C5.87530212,7.328125 6.546875,7.99969788 6.546875,8.828125 L6.546875,8.828125 L6.546875,11.984375 C6.546875,12.8128021 5.87530212,13.484375 5.046875,13.484375 L5.046875,13.484375 L1.890625,13.484375 C1.06219788,13.484375 0.390625,12.8128021 0.390625,11.984375 L0.390625,11.984375 L0.390625,8.828125 C0.390625,7.99969788 1.06219788,7.328125 1.890625,7.328125 L1.890625,7.328125 Z M11.953125,8.328125 L8.796875,8.328125 C8.52073263,8.328125 8.296875,8.55198263 8.296875,8.828125 L8.296875,8.828125 L8.296875,11.984375 C8.296875,12.2605174 8.52073263,12.484375 8.796875,12.484375 L8.796875,12.484375 L11.953125,12.484375 C12.2292674,12.484375 12.453125,12.2605174 12.453125,11.984375 L12.453125,11.984375 L12.453125,8.828125 C12.453125,8.55198263 12.2292674,8.328125 11.953125,8.328125 L11.953125,8.328125 Z M5.046875,8.328125 L1.890625,8.328125 C1.61448263,8.328125 1.390625,8.55198263 1.390625,8.828125 L1.390625,8.828125 L1.390625,11.984375 C1.390625,12.2605174 1.61448263,12.484375 1.890625,12.484375 L1.890625,12.484375 L5.046875,12.484375 C5.32301737,12.484375 5.546875,12.2605174 5.546875,11.984375 L5.546875,11.984375 L5.546875,8.828125 C5.546875,8.55198263 5.32301737,8.328125 5.046875,8.328125 L5.046875,8.328125 Z M5.046875,0.421875 C5.87530212,0.421875 6.546875,1.09344788 6.546875,1.921875 L6.546875,1.921875 L6.546875,5.078125 C6.546875,5.90655212 5.87530212,6.578125 5.046875,6.578125 L5.046875,6.578125 L1.890625,6.578125 C1.06219788,6.578125 0.390625,5.90655212 0.390625,5.078125 L0.390625,5.078125 L0.390625,1.921875 C0.390625,1.09344788 1.06219788,0.421875 1.890625,0.421875 L1.890625,0.421875 Z M5.046875,1.421875 L1.890625,1.421875 C1.61448263,1.421875 1.390625,1.64573263 1.390625,1.921875 L1.390625,1.921875 L1.390625,5.078125 C1.390625,5.35426737 1.61448263,5.578125 1.890625,5.578125 L1.890625,5.578125 L5.046875,5.578125 C5.32301737,5.578125 5.546875,5.35426737 5.546875,5.078125 L5.546875,5.078125 L5.546875,1.921875 C5.546875,1.64573263 5.32301737,1.421875 5.046875,1.421875 L5.046875,1.421875 Z" id="形状结合" fill="#1F2229"></path>
                            <path d="M11.953125,0.421875 L8.796875,0.421875 C7.96844788,0.421875 7.296875,1.09344788 7.296875,1.921875 L7.296875,5.078125 C7.296875,5.90655212 7.96844788,6.578125 8.796875,6.578125 L11.953125,6.578125 C12.7815521,6.578125 13.453125,5.90655212 13.453125,5.078125 L13.453125,1.921875 C13.453125,1.09344788 12.7815521,0.421875 11.953125,0.421875 Z M8.796875,1.421875 L11.953125,1.421875 C12.2292674,1.421875 12.453125,1.64573263 12.453125,1.921875 L12.453125,5.078125 C12.453125,5.35426737 12.2292674,5.578125 11.953125,5.578125 L8.796875,5.578125 C8.52073263,5.578125 8.296875,5.35426737 8.296875,5.078125 L8.296875,1.921875 C8.296875,1.64573263 8.52073263,1.421875 8.796875,1.421875 Z" id="矩形备份-7" fill="#D93934"></path>
                        </g>
                    </g>
                </g>
            </g>
        </g>
    </g>
</svg>