<?xml version="1.0" encoding="UTF-8"?>
<svg width="16px" height="16px" viewBox="0 0 16 16" version="1.1" xmlns="http://www.w3.org/2000/svg" xmlns:xlink="http://www.w3.org/1999/xlink">
    <title>-mockplus-</title>
    <g id="基础设施" stroke="none" stroke-width="1" fill="none" fill-rule="evenodd">
        <g id="功能菜单页面" transform="translate(-504.000000, -650.000000)" fill-rule="nonzero">
            <g id="-mockplus-dup-|7CD67DB9-82E0-4120-B8B4-B363A5DC9A7F|3.数据录入/4.Input输入框/中-已输入-带图标备份-19" transform="translate(492.000000, 642.000000)">
                <g id="-mockplus-dup-|13130A5D-1158-4C43-AF1F-6AD04848B38A|✏️Icon" transform="translate(12.000000, 8.000000)">
                    <g id="KeYongFenQu" transform="translate(1.000000, 1.000000)">
                        <rect id="矩形" fill="#000000" opacity="0" x="0" y="0" width="14" height="14"></rect>
                        <path d="M12.5453125,8.21953125 C12.0107422,10.6503906 9.91757812,12.5029297 7.371875,12.6724609 C3.828125,12.9076172 1.07871094,10.1541016 1.31660156,6.61171875 C1.4875,4.06328125 3.34550781,1.96875 5.78046875,1.43964844 C5.98144531,1.39589844 6.125,1.21953125 6.125,1.01445313 L6.125,1.00761719 C6.125,0.730078125 5.86933594,0.523632813 5.59726562,0.582421875 C5.20078125,0.668554688 4.8125,0.791601563 4.43515625,0.950195313 C3.65449219,1.28105469 2.953125,1.75410156 2.35019531,2.35703125 C1.74726562,2.95996094 1.27421875,3.66132813 0.943359375,4.44335938 C0.6015625,5.25136719 0.427929688,6.11132813 0.427929688,6.99726563 C0.427929688,7.88320313 0.6015625,8.74316406 0.943359375,9.55117188 C1.27421875,10.3332031 1.74726562,11.0345703 2.35019531,11.6375 C2.953125,12.2404297 3.65449219,12.7134766 4.43652344,13.0443359 C5.24589844,13.3861328 6.10585937,13.5597656 6.99042969,13.5597656 C7.875,13.5597656 8.73632812,13.3861328 9.54570312,13.0429688 C10.3277344,12.7121094 11.0291016,12.2390625 11.6320312,11.6361328 C12.2349609,11.0332031 12.7080078,10.3318359 13.0388672,9.54980469 C13.1960937,9.17792969 13.3177734,8.79375 13.4039062,8.40273438 C13.4626953,8.13203125 13.25625,7.875 12.9787109,7.875 L12.971875,7.875 C12.7654297,7.87636719 12.5904297,8.01992188 12.5453125,8.21953125 Z" id="路径" fill="#C4C6CC"></path>
                        <path d="M13.5529297,6.99726562 C13.5529297,6.11132812 13.3792969,5.25136719 13.0375,4.44335937 C12.7066406,3.66132812 12.2335937,2.95996094 11.6306641,2.35703125 C11.0277344,1.75410156 10.3263672,1.28105469 9.54433594,0.950195312 C8.73769531,0.609765625 7.88183594,0.436132812 7,0.434765625 L7,1.30976562 L7.00136719,1.30976562 L7.00136719,7.00136719 L13.5529297,7.00136719 L13.5529297,6.99726562 Z M7.87636719,1.378125 C10.3099609,1.75957031 12.2376953,3.69140625 12.6123047,6.12773437 L7.87636719,6.12773437 L7.87636719,1.378125 L7.87636719,1.378125 Z" id="形状" fill="#C4C6CC"></path>
                    </g>
                </g>
            </g>
        </g>
    </g>
</svg>