<?xml version="1.0" encoding="UTF-8"?>
<svg width="16px" height="16px" viewBox="0 0 16 16" version="1.1" xmlns="http://www.w3.org/2000/svg" xmlns:xlink="http://www.w3.org/1999/xlink">
    <title>-mockplus-</title>
    <g id="基础设施" stroke="none" stroke-width="1" fill="none" fill-rule="evenodd">
        <g id="功能菜单页面" transform="translate(-276.000000, -393.000000)" fill-rule="nonzero">
            <g id="-mockplus-dup-|B6E9DF5B-D0D3-4564-8740-91A7D665BACF|3.数据录入/4.Input输入框/中-已输入-带图标备份-3" transform="translate(264.000000, 385.000000)">
                <g id="-mockplus-dup-|9FA284CD-8DED-4185-824E-8E785183356C|✏️Icon" transform="translate(12.000000, 8.000000)">
                    <g id="JiFeiGuiZe" transform="translate(1.000000, 1.000000)">
                        <rect id="矩形" fill="#000000" opacity="0" x="0" y="0" width="14" height="14"></rect>
                        <path d="M14,2.625 L14,0 L11.375,0 L11.375,0.875 L2.625,0.875 L2.625,0 L0,0 L0,2.625 L0.875,2.625 L0.875,11.375 L0,11.375 L0,14 L2.625,14 L2.625,13.125 L11.375,13.125 L11.375,14 L14,14 L14,11.375 L13.125,11.375 L13.125,2.625 L14,2.625 Z M12.25,0.875 L13.125,0.875 L13.125,1.75 L12.25,1.75 L12.25,0.875 Z M0.875,0.875 L1.75,0.875 L1.75,1.75 L0.875,1.75 L0.875,0.875 Z M1.75,13.125 L0.875,13.125 L0.875,12.25 L1.75,12.25 L1.75,13.125 Z M13.125,13.125 L12.25,13.125 L12.25,12.25 L13.125,12.25 L13.125,13.125 Z M12.25,11.375 L11.375,11.375 L11.375,12.25 L2.625,12.25 L2.625,11.375 L1.75,11.375 L1.75,2.625 L2.625,2.625 L2.625,1.75 L11.375,1.75 L11.375,2.625 L12.25,2.625 L12.25,11.375 Z" id="形状" fill="#C4C6CC"></path>
                        <path d="M10.0625,6.5625 C10.0625,6.3 9.8875,6.125 9.625,6.125 L8.1375,6.125 L9.66875,3.89375 C9.8,3.71875 9.75625,3.4125 9.58125,3.28125 C9.40625,3.15 9.14375,3.19375 9.0125,3.36875 L7.0875,6.125 L6.9125,6.125 L5.03125,3.4125 C4.9,3.2375 4.6375,3.19375 4.4625,3.325 C4.2875,3.45625 4.2,3.71875 4.375,3.9375 L5.90625,6.16875 L4.375,6.16875 C4.1125,6.16875 3.9375,6.34375 3.9375,6.60625 C3.9375,6.86875 4.1125,7.04375 4.375,7.04375 L6.5625,7.04375 L6.5625,8.79375 L4.375,8.79375 C4.1125,8.79375 3.9375,8.96875 3.9375,9.23125 C3.9375,9.49375 4.1125,9.66875 4.375,9.66875 L6.5625,9.66875 L6.5625,10.98125 C6.5625,11.24375 6.7375,11.41875 7,11.41875 C7.2625,11.41875 7.4375,11.24375 7.4375,10.98125 L7.4375,9.66875 L9.625,9.66875 C9.8875,9.66875 10.0625,9.49375 10.0625,9.23125 C10.0625,8.96875 9.8875,8.79375 9.625,8.79375 L7.4375,8.79375 L7.4375,7.04375 L9.625,7.04375 C9.8875,7 10.0625,6.825 10.0625,6.5625 Z" id="路径" fill="#C4C6CC"></path>
                    </g>
                </g>
            </g>
        </g>
    </g>
</svg>