<?xml version="1.0" encoding="UTF-8"?>
<svg width="16px" height="16px" viewBox="0 0 16 16" version="1.1" xmlns="http://www.w3.org/2000/svg" xmlns:xlink="http://www.w3.org/1999/xlink">
    <title>-mockplus-</title>
    <g id="基础设施" stroke="none" stroke-width="1" fill="none" fill-rule="evenodd">
        <g id="功能菜单页面" transform="translate(-504.000000, -329.000000)" fill-rule="nonzero">
            <g id="-mockplus-dup-|8A7F438D-7DE4-48F5-AD5C-75EA8EDADAE6|3.数据录入/4.Input输入框/中-已输入-带图标备份-11" transform="translate(492.000000, 321.000000)">
                <g id="-mockplus-dup-|CC5F3701-974E-4039-8829-A80748EE7A43|✏️Icon" transform="translate(12.000000, 8.000000)">
                    <g id="YeWuXiTong" transform="translate(1.000000, 1.000000)">
                        <rect id="矩形" fill="#000000" opacity="0" x="0" y="0" width="14" height="14"></rect>
                        <path d="M9.18886279,6.99999958 L4.81386489,6.99999958 C4.57324,6.99999958 4.3763651,6.80312467 4.3763651,6.56249979 C4.3763651,6.32187492 4.57324,6.125 4.81386489,6.125 L9.18886279,6.125 C9.42948768,6.125 9.62636258,6.3218749 9.62636258,6.56249979 C9.62636258,6.80312469 9.42948768,6.99999958 9.18886279,6.99999958 Z" id="路径" fill="#C4C6CC"></path>
                        <path d="M7,-2.66453526e-15 C7.93515245,-2.66453526e-15 8.8142536,0.363671697 9.47460484,1.02539013 C10.0433546,1.59277267 10.3919872,2.32148327 10.47812,3.10898288 C10.4996532,3.30278163 10.6447032,3.45680505 10.8308382,3.4922828 L10.9128854,3.5 L12.4414003,3.5 C13.2548765,3.5 13.922019,4.12194193 13.9936352,4.91664725 L14,5.05859133 L14,6.56249686 C14,6.80448893 13.8044856,7 13.5624935,7 C13.3473894,7 13.1690138,6.84552212 13.1320303,6.64123493 L13.1249937,6.56249686 L13.1249937,5.05859133 C13.1249937,4.71679462 12.8707648,4.43149323 12.5420647,4.38244502 L12.4414003,4.37499791 L1.558593,4.37499791 C1.21679628,4.37499791 0.9314949,4.62922686 0.882446687,4.95792693 L0.874999576,5.05859133 L0.874999576,8.66796461 C0.874999576,9.15927296 1.2439796,9.56334643 1.72031915,9.61856453 L1.83203037,9.62499539 L5.68749728,9.62499539 C5.92948936,9.62499539 6.12499707,9.82050311 6.12499707,10.0624952 C6.12499707,10.2775993 5.97052184,10.4559789 5.76623524,10.4929632 L5.68749728,10.5 L1.39453058,10.5 L1.32890561,10.4986278 C1.10894044,10.4889056 0.921382656,10.6466215 0.882418769,10.8555892 L0.874999576,10.9361276 L0.874999576,12.4414003 C0.874999576,12.783197 1.12922853,13.0684984 1.4579286,13.1175466 L1.558593,13.1249937 L6.56249686,13.1249937 C6.80448893,13.1249937 7,13.3205014 7,13.5624935 C7,13.7775976 6.84552212,13.9559786 6.64123493,13.9929632 L6.56249686,14 L1.558593,14 C0.745116836,14 0.0779802873,13.3780506 0.00636473305,12.5833445 L-1.86517468e-14,12.4414003 L-1.86517468e-14,5.05859133 C-1.86517468e-14,4.24511515 0.621943428,3.57798011 1.4166489,3.50636472 L1.558593,3.5 L3.0871079,3.5 C3.31132654,3.5 3.49726396,3.33183434 3.52187332,3.10898288 C3.60800609,2.32148327 3.95663874,1.59413986 4.52538846,1.02539013 C5.1857397,0.363671697 6.06484085,-2.66453526e-15 7,-2.66453526e-15 Z M10.9767778,7.05046792 L11.1316353,7.08476223 L11.1794868,7.84901968 C11.3599555,7.89618763 11.5327337,7.96181259 11.696668,8.04301067 L11.8576115,8.12929298 L12.4208925,7.6179651 C12.4208925,7.6179651 12.8746527,7.80256571 13.2775187,8.39741635 L13.3628842,8.53124591 L12.8501892,9.11230033 C12.9424743,9.26918502 13.0201476,9.43452918 13.0814787,9.60775603 L13.1372984,9.78358907 L13.8960871,9.82050311 C13.8960871,9.82050311 14.0866426,10.2718814 13.9508718,10.9767778 L13.9165949,11.1316353 L13.1632749,11.1781197 C13.1191832,11.3647407 13.0566344,11.5436712 12.9773589,11.713181 L12.892572,11.8794865 L13.3847592,12.4208925 C13.3847592,12.4208925 13.2001586,12.8746527 12.605308,13.2775187 L12.4714784,13.3628842 L11.9328068,12.8884704 C11.7584905,12.9961364 11.5726385,13.0853453 11.3764045,13.1537901 L11.1767525,13.215228 L11.1316353,13.9165949 C10.3915315,14.1016209 9.89081297,13.9245914 9.82733985,13.9001652 L9.82050311,13.8974543 L9.78769062,13.2247984 C9.58773955,13.1755796 9.39624795,13.1040587 9.21609972,13.0131194 L9.03983943,12.9158141 L8.53124591,13.3628842 C7.87663686,12.9698636 7.64839564,12.489902 7.62087285,12.4276539 L7.6179651,12.4208925 L8.06366802,11.9287052 C7.96215439,11.7543889 7.87909779,11.568537 7.81680534,11.3728797 L7.76151972,11.1740181 L7.08476223,11.1316353 C6.89846024,10.3915315 7.07659557,9.89081297 7.10117495,9.82733985 L7.10390285,9.82050311 L7.78749627,9.78769062 C7.79843377,9.78632344 8.05546489,9.1355425 8.05136333,9.08085503 C8.0349571,8.85800357 7.77245722,8.68300366 7.63847291,8.53124591 C8.03149355,7.87663686 8.51145513,7.64839564 8.57370325,7.62087285 L8.58046465,7.6179651 L9.11366751,8.10194924 C9.27055221,8.01479109 9.43666541,7.94378283 9.6097,7.88834767 L9.78495626,7.83808219 L9.82050311,7.10390285 C9.82050311,7.10390285 10.2718814,6.91453836 10.9767778,7.05046792 Z M10.499995,8.31386321 C9.29140181,8.31386321 8.31249602,9.29276898 8.31249602,10.5013622 C8.31249602,11.7099553 9.29140181,12.6888611 10.499995,12.6888611 C11.7085881,12.6888611 12.6874939,11.7099553 12.6874939,10.5013622 C12.6874939,9.29276899 11.7085882,8.31386321 10.499995,8.31386321 Z M10.0624952,9.74359026 C10.333221,9.58728663 10.666769,9.58728663 10.9374948,9.74359026 C11.2082206,9.89989389 11.3749946,10.1887549 11.3749946,10.5013622 C11.3749946,10.8139694 11.2082206,11.1028304 10.9374948,11.2591341 C10.666769,11.4154377 10.333221,11.4154377 10.0624952,11.2591341 C9.79176935,11.1028304 9.62499539,10.8139694 9.62499539,10.5013622 C9.62499539,10.1887549 9.79176935,9.89989389 10.0624952,9.74359026 Z M6.99999665,0.874999576 C5.73124725,0.874999576 4.66894308,1.78007728 4.42695101,2.97773295 C4.37773228,3.22136565 4.54224588,3.44949445 4.7759733,3.49268388 L4.85624768,3.49999833 L9.14374562,3.49999833 C9.41855018,3.49999833 9.62772977,3.24843596 9.57304229,2.97773295 C9.33105022,1.78007726 8.26874605,0.874999576 6.99999665,0.874999576 Z" id="形状结合" fill="#C4C6CC"></path>
                    </g>
                </g>
            </g>
        </g>
    </g>
</svg>