<?xml version="1.0" encoding="UTF-8"?>
<svg width="16px" height="16px" viewBox="0 0 16 16" version="1.1" xmlns="http://www.w3.org/2000/svg" xmlns:xlink="http://www.w3.org/1999/xlink">
    <title>-mockplus-</title>
    <g id="基础设施" stroke="none" stroke-width="1" fill="none" fill-rule="evenodd">
        <g id="功能菜单页面" transform="translate(-504.000000, -454.000000)" fill-rule="nonzero">
            <g id="-mockplus-dup-|4484DB36-3709-4084-8373-A24D4B011403|3.数据录入/4.Input输入框/中-已输入-带图标备份-15" transform="translate(492.000000, 446.000000)">
                <g id="-mockplus-dup-|2F64C4E5-AD9E-437D-8EB5-310874AD214C|✏️Icon" transform="translate(12.000000, 8.000000)">
                    <g id="YeWuGeJie" transform="translate(1.000000, 1.000000)">
                        <rect id="矩形" fill="#000000" opacity="0" x="0" y="0" width="14" height="14"></rect>
                        <path d="M9.1875,7.87636719 L4.8125,7.87636719 C4.57050781,7.87636719 4.375,7.68085937 4.375,7.43886719 C4.375,7.196875 4.57050781,7.00136719 4.8125,7.00136719 L9.1875,7.00136719 C9.42949219,7.00136719 9.625,7.196875 9.625,7.43886719 C9.625,7.68085937 9.42949219,7.87636719 9.1875,7.87636719 Z" id="路径" fill="#C4C6CC"></path>
                        <path d="M12.8789062,3.5 L10.5,3.5 C10.5,2.56484375 10.1363281,1.68574219 9.47460938,1.02539062 C8.81425781,0.363671875 7.93515625,0 7,0 C6.06484375,0 5.18574219,0.363671875 4.52539062,1.02539062 C3.86367188,1.68710938 3.5,2.56484375 3.5,3.5 L1.12109375,3.5 C0.503125,3.5 0,4.003125 0,4.62109375 L0,12.8789062 C0,13.496875 0.503125,14 1.12109375,14 L12.8789062,14 C13.496875,14 14,13.496875 14,12.8789062 L14,4.62109375 C14,4.003125 13.496875,3.5 12.8789062,3.5 Z M7,0.875 C8.44785156,0.875 9.625,2.05214844 9.625,3.5 L4.375,3.5 C4.375,2.05214844 5.55214844,0.875 7,0.875 Z M0.875,4.62109375 C0.875,4.48574219 0.985742187,4.375 1.12109375,4.375 L12.8789062,4.375 C13.0142578,4.375 13.125,4.48574219 13.125,4.62109375 L13.125,9.10546875 C13.125,9.39257812 12.8925781,9.625 12.6054688,9.625 L1.39453125,9.625 C1.10742188,9.625 0.875,9.39257812 0.875,9.10546875 L0.875,4.62109375 Z M12.8789062,13.125 L1.12109375,13.125 C0.985742187,13.125 0.875,13.0142578 0.875,12.8789063 L0.875,10.4001953 C1.03632813,10.4644531 1.21132812,10.5 1.39453125,10.5 L12.6054688,10.5 C12.7886719,10.5 12.9636719,10.4644531 13.125,10.4001953 L13.125,12.8789063 C13.125,13.0142578 13.0142578,13.125 12.8789062,13.125 Z" id="形状" fill="#C4C6CC"></path>
                    </g>
                </g>
            </g>
        </g>
    </g>
</svg>