<?xml version="1.0" encoding="UTF-8"?>
<svg width="16px" height="16px" viewBox="0 0 16 16" version="1.1" xmlns="http://www.w3.org/2000/svg" xmlns:xlink="http://www.w3.org/1999/xlink">
    <title>-mockplus-</title>
    <g id="基础设施" stroke="none" stroke-width="1" fill="none" fill-rule="evenodd">
        <g id="功能菜单页面" transform="translate(-276.000000, -554.000000)" fill-rule="nonzero">
            <g id="-mockplus-dup-|BC725524-3732-4CF6-8D85-E1C77DF33221|3.数据录入/4.Input输入框/中-已输入-带图标备份-6" transform="translate(264.000000, 546.000000)">
                <g id="-mockplus-dup-|BCCECF92-473C-40A8-9CBF-6DDC90F846EA|✏️Icon" transform="translate(12.000000, 8.000000)">
                    <g id="RongLiangGuanLi" transform="translate(1.000000, 1.000000)">
                        <rect id="矩形" fill="#000000" opacity="0" x="0" y="0" width="14" height="14"></rect>
                        <path d="M9.8,6.3 C9.8,6.3 10.325,6.08125 11.1125,6.3 L11.1125,6.3 L11.15625,7.04375 C11.375,7.0875 11.59375,7.175 11.8125,7.30625 L11.8125,7.30625 L12.38125,6.78125 C12.38125,6.78125 12.90625,7 13.34375,7.7 L13.34375,7.7 L12.81875,8.26875 C12.95,8.44375 13.0375,8.70625 13.125,8.925 L13.125,8.925 L13.86875,9.05625 C13.86875,9.05625 14.0875,9.58125 13.86875,10.36875 L13.86875,10.36875 L13.125,10.4125 C13.08125,10.675 12.99375,10.89375 12.8625,11.1125 L12.8625,11.1125 L13.34375,11.6375 C13.34375,11.6375 13.125,12.1625 12.425,12.6 L12.425,12.6 L11.9,12.11875 C11.68125,12.25 11.41875,12.3375 11.15625,12.425 L11.15625,12.425 L11.1125,13.125 C10.325,13.34375 9.8,13.125 9.8,13.125 L9.8,13.125 L9.75625,12.46875 C9.49375,12.425 9.23125,12.29375 9.0125,12.1625 L9.0125,12.1625 L8.4875,12.6 C7.7875,12.1625 7.56875,11.6375 7.56875,11.6375 L7.56875,11.6375 L8.00625,11.15625 C7.875,10.9375 7.74375,10.675 7.7,10.4125 L7.7,10.4125 L7.04375,10.36875 C6.825,9.58125 7.04375,9.05625 7.04375,9.05625 L7.04375,9.05625 L7.74375,9.0125 C7.74375,9.0125 8.00625,8.35625 8.00625,8.3125 C8.00625,8.05 7.74375,7.875 7.6125,7.74375 C8.05,7.04375 8.575,6.825 8.575,6.825 L8.575,6.825 L9.1,7.30625 C9.275,7.175 9.5375,7.0875 9.75625,7.04375 L9.75625,7.04375 Z M5.73125,9.625 C5.99375,9.625 6.16875,9.8 6.16875,10.0625 C6.16875,10.325 5.99375,10.5 5.73125,10.5 L2.05625,10.5 C1.88125,10.5 1.75,10.63125 1.75,10.71875 L1.75,12.03125 C1.75,12.11875 1.88125,12.25 2.05625,12.25 L5.73125,12.25 C5.99375,12.25 6.16875,12.425 6.16875,12.6875 C6.16875,12.95 5.95,13.125 5.73125,13.125 L2.05625,13.125 C1.4,13.125 0.875,12.6 0.875,12.03125 L0.875,10.71875 C0.875,10.15 1.4,9.625 2.05625,9.625 L5.73125,9.625 Z M10.5,7.4375 C9.275,7.4375 8.3125,8.4 8.3125,9.625 C8.3125,10.85 9.275,11.8125 10.5,11.8125 C11.725,11.8125 12.6875,10.85 12.6875,9.625 C12.6875,8.4 11.725,7.4375 10.5,7.4375 Z M10.5,8.75 C10.98125,8.75 11.375,9.14375 11.375,9.625 C11.375,10.10625 10.98125,10.5 10.5,10.5 C10.01875,10.5 9.625,10.10625 9.625,9.625 C9.625,9.14375 10.01875,8.75 10.5,8.75 Z M5.73125,5.25 C5.99375,5.25 6.16875,5.425 6.16875,5.6875 C6.16875,5.95 5.99375,6.125 5.73125,6.125 L2.05625,6.125 C1.88125,6.125 1.75,6.25625 1.75,6.34375 L1.75,7.65625 C1.75,7.74375 1.88125,7.875 2.05625,7.875 L5.73125,7.875 C5.99375,7.875 6.16875,8.05 6.16875,8.3125 C6.16875,8.575 5.95,8.70625 5.73125,8.70625 L2.05625,8.70625 C1.4,8.70625 0.875,8.225 0.875,7.6125 L0.875,6.3 C0.875,5.73125 1.4,5.25 2.05625,5.25 L5.73125,5.25 Z M12.25,0 C12.73125,0 13.125,0.39375 13.125,0.875 L13.125,0.875 L13.125,3.5 C13.125,3.98125 12.73125,4.375 12.25,4.375 L12.25,4.375 L1.75,4.375 C1.26875,4.375 0.875,3.98125 0.875,3.5 L0.875,3.5 L0.875,0.875 C0.875,0.39375 1.26875,0 1.75,0 L1.75,0 Z M12.25,0.875 L1.75,0.875 L1.75,3.5 L12.25,3.5 L12.25,0.875 Z" id="形状结合" fill="#C4C6CC"></path>
                        <polygon id="路径" fill="#C4C6CC" points="2.625 1.75 4.375 1.75 4.375 2.625 2.625 2.625"></polygon>
                    </g>
                </g>
            </g>
        </g>
    </g>
</svg>