<?xml version="1.0" encoding="UTF-8"?>
<svg width="16px" height="16px" viewBox="0 0 16 16" version="1.1" xmlns="http://www.w3.org/2000/svg" xmlns:xlink="http://www.w3.org/1999/xlink">
    <title>-mockplus-</title>
    <g id="WinStore" stroke="none" stroke-width="1" fill="none" fill-rule="evenodd">
        <g id="消息通知" transform="translate(-16.000000, -141.000000)" fill="#454852" fill-rule="nonzero">
            <g id="-mockplus-" transform="translate(0.000000, 127.000000)">
                <g id="-mockplus-" transform="translate(16.000000, 14.000000)">
                    <g id="1.通用/2.Icon图标/WinCloud/存储" transform="translate(0.000000, 1.000000)">
                        <path d="M9.0625,8.125 C9.780125,8.125 10.3632337,8.7009325 10.3748242,9.41579541 L10.375,9.4375 L10.375,12.3633353 L9.5,12.3633353 L9.5,9.4375 C9.5,9.19829167 9.3080225,9.00392208 9.06973486,9.00005861 L9.0625,9 L6.8125,9 C6.57329167,9 6.37892208,9.1919775 6.37505861,9.43026514 L6.375,9.4375 L6.375,12.3633353 L5.5,12.3633353 L5.5,9.4375 C5.5,8.719875 6.0759325,8.13676625 6.79079541,8.12517584 L6.8125,8.125 L9.0625,8.125 Z" id="路径"></path>
                        <path d="M0.999096765,6.36008357 L0.990503151,6.36826602 C0.711674837,6.64038698 0.903275833,7.1181056 1.296875,7.1181056 L3.060875,7.11809375 L3.06088918,12.796875 C3.06088918,13.0384996 3.2567646,13.234375 3.49838918,13.234375 L12.4913015,13.234375 L12.4985364,13.234375 C12.736824,13.2304529 12.9288015,13.0360833 12.9288015,12.796875 L12.9287969,7.11809375 L14.578125,7.1181056 C14.9736971,7.1181056 15.1661637,6.63484525 14.8789006,6.36289456 L8.30077557,0.135413962 C8.13321525,-0.0232146218 7.8712646,-0.0244448229 7.70222176,0.132602969 L0.999096765,6.36008357 Z M7.99717188,1.05290625 L13.4796094,6.24309375 L12.4913015,6.2431056 L12.4840667,6.24316421 C12.245779,6.24702768 12.0538015,6.44139727 12.0538015,6.6806056 L12.0537969,12.359375 L3.935875,12.359375 L3.93588918,6.6806056 L3.93583056,6.67337074 C3.93196709,6.4350831 3.73759751,6.2431056 3.49838918,6.2431056 L2.4105625,6.24309375 L7.99717188,1.05290625 Z" id="路径"></path>
                    </g>
                </g>
            </g>
        </g>
    </g>
</svg>