<?xml version="1.0" encoding="UTF-8"?>
<svg width="16px" height="16px" viewBox="0 0 16 16" version="1.1" xmlns="http://www.w3.org/2000/svg" xmlns:xlink="http://www.w3.org/1999/xlink">
    <title>-mockplus-</title>
    <g id="基础设施" stroke="none" stroke-width="1" fill="none" fill-rule="evenodd">
        <g id="功能菜单页面" transform="translate(-276.000000, -586.000000)" fill-rule="nonzero">
            <g id="-mockplus-dup-|819781E6-AC95-4FB2-BDDE-BBC60BF65EA4|3.数据录入/4.Input输入框/中-已输入-带图标备份-7" transform="translate(264.000000, 578.000000)">
                <g id="-mockplus-dup-|E78CEACD-E970-4B94-9B3A-EA6C334B6BC7|✏️Icon" transform="translate(12.000000, 8.000000)">
                    <g id="AnZhuangRenWu" transform="translate(1.000000, 1.000000)">
                        <rect id="矩形" fill="#000000" opacity="0" x="0" y="0" width="14" height="14"></rect>
                        <path d="M7,1.00625 L12.20625,4.025 L12.20625,10.01875 L7,12.99375 L1.79375,10.01875 L1.79375,4.025 L7,1.00625 M7,0 L0.91875,3.5 L0.91875,10.5 L7,14 L13.08125,10.5 L13.08125,3.5 L7,0 Z" id="形状" fill="#C4C6CC"></path>
                        <path d="M8.26875,11.375 L7.39375,11.375 L7.39375,8.26875 L7.7,8.18125 C8.575,7.875 9.1875,7.04375 9.1875,6.08125 C9.1875,5.38125 8.8375,4.725 8.3125,4.2875 L8.35625,5.8625 C8.35625,6.5625 7.7875,7.13125 7.0875,7.13125 C6.3875,7.13125 5.81875,6.5625 5.81875,5.8625 L5.775,4.2 C5.1625,4.59375 4.76875,5.29375 4.76875,6.08125 C4.76875,7.04375 5.38125,7.875 6.25625,8.18125 L6.5625,8.26875 L6.5625,11.375 L5.6875,11.375 L5.6875,8.8375 C4.59375,8.3125 3.89375,7.21875 3.89375,6.0375 C3.89375,4.68125 4.76875,3.5 6.08125,3.0625 L6.65,2.8875 L6.69375,5.81875 C6.69375,6.0375 6.86875,6.2125 7.0875,6.2125 C7.30625,6.2125 7.48125,6.0375 7.48125,5.81875 L7.4375,2.8875 L8.05,3.10625 C9.275,3.54375 10.10625,4.725 10.10625,6.0375 C10.10625,7.2625 9.40625,8.3125 8.3125,8.8375 L8.26875,11.375 L8.26875,11.375 Z" id="路径" fill="#C4C6CC"></path>
                    </g>
                </g>
            </g>
        </g>
    </g>
</svg>