<?xml version="1.0" encoding="UTF-8"?>
<svg width="16px" height="16px" viewBox="0 0 16 16" version="1.1" xmlns="http://www.w3.org/2000/svg" xmlns:xlink="http://www.w3.org/1999/xlink">
    <title>-mockplus-</title>
    <g id="基础设施" stroke="none" stroke-width="1" fill="none" fill-rule="evenodd">
        <g id="功能菜单页面" transform="translate(-276.000000, -647.000000)" fill-rule="nonzero">
            <g id="-mockplus-dup-|892A0F1C-40F5-468D-BD37-46D196875742|3.数据录入/4.Input输入框/中-已输入-带图标备份-9" transform="translate(264.000000, 639.000000)">
                <g id="-mockplus-dup-|F466886C-BE78-4DF1-9B66-F24911B77DD2|✏️Icon" transform="translate(12.000000, 8.000000)">
                    <g id="✏️Icon" transform="translate(1.000000, 1.000000)">
                        <g id="编组-2备份-2" transform="translate(0.000000, 0.015625)">
                            <path d="M7.0625,0.421875 C7.33588095,0.421875 7.55801762,0.613852501 7.56243301,0.852140138 L7.5625,1.296875 L7.5571765,1.34541068 C9.87505974,1.61727076 11.6885262,3.54108172 11.7921939,5.90924443 L11.796875,6.12353591 L11.7965,10.0775 L13.109375,10.078125 C13.3509996,10.078125 13.546875,10.3019826 13.546875,10.578125 C13.546875,10.851506 13.3548975,11.0736426 13.1166099,11.078058 L0.875,11.078125 C0.633375422,11.078125 0.4375,10.8542674 0.4375,10.578125 C0.4375,10.304744 0.629477501,10.0826074 0.867765138,10.078192 L2.1865,10.0775 L2.1875,6.12353591 C2.1875,3.6105834 4.11169916,1.54742096 6.56550012,1.33121134 C6.56324154,1.32260743 6.56273901,1.3133938 6.56256699,1.30410986 L6.5625,1.296875 L6.5625,0.859375 C6.5625,0.617750422 6.78635763,0.421875 7.0625,0.421875 Z M6.9921875,2.1875 C4.88984103,2.1875 3.17287123,3.84117186 3.06761369,5.92097552 L3.0625,6.12353591 L3.0625,10.078125 L10.921875,10.078125 L10.921875,6.12353591 C10.921875,3.9713207 9.19736611,2.22278281 7.05716788,2.18802727 L6.9921875,2.1875 Z" id="形状结合" fill="#C4C6CC"></path>
                            <path d="M8.75,11.8203125 C8.99162458,11.8203125 9.1875,12.0441701 9.1875,12.3203125 C9.1875,12.5936935 8.9955225,12.8158301 8.75723486,12.8202455 L8.75,12.8203125 L5.25,12.8203125 C5.00837542,12.8203125 4.8125,12.5964549 4.8125,12.3203125 C4.8125,12.0469315 5.0044775,11.8247949 5.24276514,11.8203795 L5.25,11.8203125 L8.75,11.8203125 Z" id="路径-7备份" fill="#D93934"></path>
                        </g>
                    </g>
                </g>
            </g>
        </g>
    </g>
</svg>