<?xml version="1.0" encoding="UTF-8"?>
<svg width="16px" height="16px" viewBox="0 0 16 16" version="1.1" xmlns="http://www.w3.org/2000/svg" xmlns:xlink="http://www.w3.org/1999/xlink">
    <title>-mockplus-</title>
    <g id="基础设施" stroke="none" stroke-width="1" fill="none" fill-rule="evenodd">
        <g id="功能菜单页面" transform="translate(-16.000000, -273.000000)" fill-rule="nonzero">
            <g id="-mockplus-dup-|6CFBCAEE-9051-45BF-A559-704A0177CA39|2.导航/4.Menu导航菜单/框架/2.侧边栏-展开-Portal-Slider-b.未选中备份-2" transform="translate(0.000000, 259.000000)">
                <g id="2.导航/4.Menu导航菜单/框架/2.侧边栏-展开-Portal-Slider-b.未选中备份-2" transform="translate(16.000000, 11.000000)">
                    <g id="-mockplus-dup-|90B542CD-99C4-4C08-B8A9-9829C6698DFD|1.通用/2.Icon图标/WinCloud/存储" transform="translate(0.000000, 3.000000)">
                        <g id="JianKongGaoJing" transform="translate(1.000000, 1.000000)">
                            <rect id="矩形" fill="#000000" opacity="0" x="0" y="0" width="14" height="14"></rect>
                            <path d="M4.765625,10.6875 C4.590625,10.6875 4.459375,10.6 4.371875,10.425 L2.796875,7.1875 L0.871875,7.1875 L0.871875,6.3125 L3.059375,6.3125 C3.234375,6.3125 3.365625,6.4 3.453125,6.575 L4.853125,9.375 L8.396875,3.5125 C8.571875,3.25 9.009375,3.25 9.140625,3.5125 L10.321875,5.48125 L13.078125,5.48125 L13.078125,6.35625 L10.015625,6.35625 C9.840625,6.35625 9.709375,6.26875 9.621875,6.1375 L8.703125,4.51875 L5.159375,10.46875 C5.071875,10.6 4.940625,10.6875 4.765625,10.6875 Z" id="路径" fill="#C4C6CC"></path>
                            <path d="M10.803125,7.23125 C12.028125,7.23125 13.078125,8.71875 13.078125,10.6 L13.078125,10.6 L13.078125,12.48125 L13.559375,12.48125 C13.559375,12.48125 13.953125,12.48125 13.953125,12.91875 C13.953125,13.3125 13.603125,13.3125 13.515625,13.3125 L7.478125,13.3125 C7.478125,13.3125 6.996875,13.26875 6.996875,12.875 C6.996875,12.48125 7.434375,12.4375 7.434375,12.4375 L7.434375,12.4375 L7.871875,12.4375 L7.871875,10.55625 C7.871875,8.71875 8.878125,7.23125 10.146875,7.23125 L10.146875,7.23125 Z M12.81875,1.0625 C13.475,1.0625 13.95625,1.54375 13.95625,2.2 L13.95625,2.2 L13.95625,6.296875 C13.95625,6.559375 13.78125,6.734375 13.51875,6.734375 C13.25625,6.734375 13.08125,6.559375 13.08125,6.296875 L13.08125,6.296875 L13.08125,2.2 C13.08125,2.06875 12.95,1.9375 12.8625,1.9375 L12.8625,1.9375 L1.1375,1.9375 C1.00625,1.9375 0.875,2.06875 0.875,2.2 L0.875,2.2 L0.875,12.13125 C0.875,12.2625 1.00625,12.39375 1.1375,12.39375 L1.1375,12.39375 L5.64375,12.39375 C5.90625,12.39375 6.08125,12.56875 6.08125,12.83125 C6.08125,13.09375 5.90625,13.26875 5.64375,13.26875 L5.64375,13.26875 L1.1375,13.26875 C0.48125,13.26875 3.10862447e-14,12.7875 3.10862447e-14,12.175 L3.10862447e-14,12.175 L3.10862447e-14,2.2 C3.10862447e-14,1.54375 0.48125,1.0625 1.1375,1.0625 L1.1375,1.0625 Z M10.803125,8.140625 L10.103125,8.140625 C9.446875,8.140625 8.703125,9.2 8.703125,10.6 L8.703125,10.6 L8.703125,12.4375 L12.203125,12.4375 L12.203125,10.55625 C12.203125,9.15625 11.459375,8.140625 10.803125,8.140625 L10.803125,8.140625 Z" id="形状结合" fill="#C4C6CC"></path>
                        </g>
                    </g>
                </g>
            </g>
        </g>
    </g>
</svg>