<?xml version="1.0" encoding="UTF-8"?>
<svg width="16px" height="16px" viewBox="0 0 16 16" version="1.1" xmlns="http://www.w3.org/2000/svg" xmlns:xlink="http://www.w3.org/1999/xlink">
    <title>-mockplus-</title>
    <g id="基础设施" stroke="none" stroke-width="1" fill="none" fill-rule="evenodd">
        <g id="功能菜单页面" transform="translate(-504.000000, -422.000000)" fill-rule="nonzero">
            <g id="-mockplus-dup-|20FED947-661F-4DB9-AFD4-630ADD483270|3.数据录入/4.Input输入框/中-已输入-带图标备份-14" transform="translate(492.000000, 414.000000)">
                <g id="-mockplus-dup-|D675EB37-CE30-4238-8169-3AF0331B6803|✏️Icon" transform="translate(12.000000, 8.000000)">
                    <g id="ZiYuanBianPai" transform="translate(1.000000, 1.000000)">
                        <rect id="矩形" fill="#000000" opacity="0" x="0" y="0" width="14" height="14"></rect>
                        <path d="M12.6875,14 L9.1875,14 C8.44375,14 7.875,13.43125 7.875,12.6875 L7.875,9.1875 C7.875,8.44375 8.44375,7.875 9.1875,7.875 L12.6875,7.875 C13.43125,7.875 14,8.44375 14,9.1875 L14,12.6875 C14,13.43125 13.43125,14 12.6875,14 Z M9.1875,8.75 C8.925,8.75 8.75,8.925 8.75,9.1875 L8.75,12.6875 C8.75,12.95 8.925,13.125 9.1875,13.125 L12.6875,13.125 C12.95,13.125 13.125,12.95 13.125,12.6875 L13.125,9.1875 C13.125,8.925 12.95,8.75 12.6875,8.75 L9.1875,8.75 Z" id="形状" fill="#C4C6CC"></path>
                        <path d="M12.6875,0 L9.1875,0 C8.44375,0 7.875,0.56875 7.875,1.3125 L7.875,2.625 L6.125,2.625 L6.125,1.3125 C6.125,0.56875 5.55625,0 4.8125,0 L1.3125,0 C0.56875,0 0,0.56875 0,1.3125 L0,12.6875 C0,13.43125 0.56875,14 1.3125,14 L4.8125,14 C5.55625,14 6.125,13.43125 6.125,12.6875 L6.125,3.5 L7.875,3.5 L7.875,4.8125 C7.875,5.55625 8.44375,6.125 9.1875,6.125 L10.5,6.125 L10.5,7.875 L11.375,7.875 L11.375,6.125 L12.6875,6.125 C13.43125,6.125 14,5.55625 14,4.8125 L14,1.3125 C14,0.56875 13.43125,0 12.6875,0 Z M5.25,12.6875 C5.25,12.95 5.075,13.125 4.8125,13.125 L1.3125,13.125 C1.05,13.125 0.875,12.95 0.875,12.6875 L0.875,1.3125 C0.875,1.05 1.05,0.875 1.3125,0.875 L4.8125,0.875 C5.075,0.875 5.25,1.05 5.25,1.3125 L5.25,12.6875 Z M13.125,4.8125 C13.125,5.075 12.95,5.25 12.6875,5.25 L9.1875,5.25 C8.925,5.25 8.75,5.075 8.75,4.8125 L8.75,1.3125 C8.75,1.05 8.925,0.875 9.1875,0.875 L12.6875,0.875 C12.95,0.875 13.125,1.05 13.125,1.3125 L13.125,4.8125 Z" id="形状" fill="#C4C6CC"></path>
                    </g>
                </g>
            </g>
        </g>
    </g>
</svg>