<?xml version="1.0" encoding="UTF-8"?>
<svg width="16px" height="16px" viewBox="0 0 16 16" version="1.1" xmlns="http://www.w3.org/2000/svg" xmlns:xlink="http://www.w3.org/1999/xlink">
    <title>-mockplus-</title>
    <g id="基础设施" stroke="none" stroke-width="1" fill="none" fill-rule="evenodd">
        <g id="功能菜单页面" transform="translate(-276.000000, -329.000000)" fill-rule="nonzero">
            <g id="-mockplus-dup-|C1EF8B02-C8F3-4DD2-9B96-24AD6C0B1CED|3.数据录入/4.Input输入框/中-已输入-带图标备份" transform="translate(264.000000, 321.000000)">
                <g id="-mockplus-dup-|1C870B3C-4B0E-45EE-BA30-2FC24AACD43F|✏️Icon" transform="translate(12.000000, 8.000000)">
                    <g id="DingDanShenPi" transform="translate(1.000000, 1.000000)">
                        <rect id="矩形" fill="#000000" opacity="0" x="0" y="0" width="14" height="14"></rect>
                        <path d="M11.8125,0.875 L10.4125,0.875 C10.2375,0.35 9.75625,0 9.1875,0 L4.8125,0 C4.24375,0 3.7625,0.35 3.5875,0.875 L2.1875,0.875 C1.44375,0.875 0.875,1.44375 0.875,2.1875 L0.875,12.6875 C0.875,13.43125 1.44375,14 2.1875,14 L11.8125,14 C12.55625,14 13.125,13.43125 13.125,12.6875 L13.125,2.1875 C13.125,1.44375 12.55625,0.875 11.8125,0.875 Z M4.8125,0.875 L9.1875,0.875 C9.45,0.875 9.625,1.05 9.625,1.3125 C9.625,1.575 9.45,1.75 9.1875,1.75 L4.8125,1.75 C4.55,1.75 4.375,1.575 4.375,1.3125 C4.375,1.05 4.55,0.875 4.8125,0.875 Z M12.25,12.6875 C12.25,12.95 12.075,13.125 11.8125,13.125 L2.1875,13.125 C1.925,13.125 1.75,12.95 1.75,12.6875 L1.75,2.1875 C1.75,1.925 1.925,1.75 2.1875,1.75 L3.5875,1.75 C3.7625,2.275 4.24375,2.625 4.8125,2.625 L9.1875,2.625 C9.75625,2.625 10.2375,2.275 10.4125,1.75 L11.8125,1.75 C12.075,1.75 12.25,1.925 12.25,2.1875 L12.25,12.6875 Z" id="形状" fill="#ECECEC"></path>
                        <path d="M11.1100957,4.4998096 C10.9351252,4.36855552 10.6289268,4.36855552 10.4976989,4.54356096 L6.29840681,9.48746464 L4.11127552,6.9061344 C3.93630501,6.73112896 3.67384926,6.6873776 3.49887875,6.86238304 C3.32390825,7.03738848 3.28016562,7.29989664 3.45513613,7.47490208 L5.9484658,10.4499946 L5.99220843,10.4499946 C5.99220843,10.4499946 5.99220843,10.4937459 6.03595106,10.4937459 C6.03595106,10.4937459 6.07969368,10.4937459 6.07969368,10.5374973 C6.12343631,10.5374973 6.12343631,10.5812486 6.16717893,10.5812486 C6.21092156,10.5812486 6.21092156,10.5812486 6.25466419,10.625 L6.42963469,10.625 C6.47337732,10.625 6.47337732,10.625 6.51711994,10.5812486 C6.56086257,10.5812486 6.56086257,10.5374973 6.60460519,10.5374973 C6.60460519,10.5374973 6.64834782,10.5374973 6.64834782,10.4937459 C6.64834782,10.4937459 6.64834782,10.4499946 6.69209045,10.4499946 L6.73583307,10.4499946 L11.2413235,5.06857728 C11.2850662,4.9373232 11.2850662,4.67481504 11.1100957,4.4998096 L11.1100957,4.4998096 Z" id="路径" fill="#ECECEC"></path>
                    </g>
                </g>
            </g>
        </g>
    </g>
</svg>