<?xml version="1.0" encoding="UTF-8"?>
<svg width="16px" height="16px" viewBox="0 0 16 16" version="1.1" xmlns="http://www.w3.org/2000/svg" xmlns:xlink="http://www.w3.org/1999/xlink">
    <title>-mockplus-</title>
    <g id="基础设施" stroke="none" stroke-width="1" fill="none" fill-rule="evenodd">
        <g id="功能菜单页面" transform="translate(-504.000000, -486.000000)" fill="#C4C6CC" fill-rule="nonzero">
            <g id="-mockplus-dup-|BD9315BE-C5A1-4EF9-A6B0-311A020F2608|3.数据录入/4.Input输入框/中-已输入-带图标备份-16" transform="translate(492.000000, 478.000000)">
                <g id="✏️Icon" transform="translate(12.000000, 8.000000)">
                    <path d="M10.25,0.921875 C10.967625,0.921875 11.5507337,1.4978075 11.5623242,2.21267041 L11.5625,2.234375 L11.5625,3.038875 L15,3.0390625 C15.2416246,3.0390625 15.4375,3.26292013 15.4375,3.5390625 C15.4375,3.81244345 15.2455225,4.03458012 15.0072349,4.03899551 L13.9429245,4.0386701 C13.9699827,4.14366352 13.984375,4.25374476 13.984375,4.3671875 L13.984375,4.3671875 L13.984375,13.5546875 C13.984375,14.2795612 13.3967487,14.8671875 12.671875,14.8671875 L12.671875,14.8671875 L3.328125,14.8671875 C2.60325127,14.8671875 2.015625,14.2795612 2.015625,13.5546875 L2.015625,13.5546875 L2.015625,4.3671875 C2.015625,4.25374476 2.03001729,4.14366352 2.05707555,4.0386701 L1,4.0390625 C0.758375422,4.0390625 0.5625,3.81520487 0.5625,3.5390625 C0.5625,3.26568155 0.754477501,3.04354488 0.992765138,3.03912949 L4.4375,3.038875 L4.4375,2.234375 C4.4375,1.51675 5.0134325,0.93364125 5.72829541,0.922050838 L10.25,0.921875 Z M12.9612192,4.03902472 L3.03878077,4.03902472 C2.94792869,4.11919145 2.890625,4.23649748 2.890625,4.3671875 L2.890625,4.3671875 L2.890625,13.5546875 C2.890625,13.7963121 3.08650042,13.9921875 3.328125,13.9921875 L3.328125,13.9921875 L12.671875,13.9921875 C12.9134996,13.9921875 13.109375,13.7963121 13.109375,13.5546875 L13.109375,13.5546875 L13.109375,4.3671875 C13.109375,4.23649748 13.0520713,4.11919145 12.9612192,4.03902472 Z M10.2572349,1.79693361 L5.75,1.796875 C5.51079167,1.796875 5.31642208,1.9888525 5.31255861,2.22714014 L5.3125,3.038875 L10.6875,3.038875 L10.6875,2.234375 C10.6875,1.99516667 10.4955225,1.80079708 10.2572349,1.79693361 Z" id="形状结合"></path>
                    <path d="M6.4921875,5.5625 C6.76556845,5.5625 6.98770512,5.7544775 6.99212051,5.99276514 L6.9921875,6 L6.9921875,12 C6.9921875,12.2416246 6.76832987,12.4375 6.4921875,12.4375 C6.21880655,12.4375 5.99666988,12.2455225 5.99225449,12.0072349 L5.9921875,6 C5.9921875,5.75837542 6.21604513,5.5625 6.4921875,5.5625 Z M9.6171875,5.5625 C9.89056845,5.5625 10.1127051,5.7544775 10.1171205,5.99276514 L10.1171875,6 L10.1171875,12 C10.1171875,12.2416246 9.89332987,12.4375 9.6171875,12.4375 C9.34380655,12.4375 9.12166988,12.2455225 9.11725449,12.0072349 L9.1171875,6 C9.1171875,5.75837542 9.34104513,5.5625 9.6171875,5.5625 Z" id="形状结合"></path>
                </g>
            </g>
        </g>
    </g>
</svg>