<?xml version="1.0" encoding="UTF-8"?>
<svg width="16px" height="16px" viewBox="0 0 16 16" version="1.1" xmlns="http://www.w3.org/2000/svg" xmlns:xlink="http://www.w3.org/1999/xlink">
    <title>-mockplus-</title>
    <g id="基础设施" stroke="none" stroke-width="1" fill="none" fill-rule="evenodd">
        <g id="功能菜单页面" transform="translate(-276.000000, -422.000000)" fill-rule="nonzero">
            <g id="-mockplus-dup-|04E0B2D7-1668-46D9-B6DF-AAC8F07F1DB1|3.数据录入/4.Input输入框/中-已输入-带图标备份-4" transform="translate(264.000000, 414.000000)">
                <g id="-mockplus-dup-|4A58CD47-8227-4CDC-9217-87D6C699AB83|✏️Icon" transform="translate(12.000000, 8.000000)">
                    <g id="YeWuBaoBiao" transform="translate(1.000000, 1.000000)">
                        <rect id="矩形" fill="#000000" opacity="0" x="0" y="0" width="14" height="14"></rect>
                        <path d="M0.4375,0 C0.7,0 0.875,0.175 0.875,0.4375 L0.875,13.125 L13.5625,13.125 C13.825,13.125 14,13.3 14,13.5625 C14,13.825 13.825,14 13.5625,14 L0.4375,14 C0.175,14 0,13.825 0,13.5625 L0,0.4375 C0,0.175 0.175,0 0.4375,0 Z" id="形状结合" fill="#C4C6CC"></path>
                        <path d="M3.9375,11.375 C3.675,11.375 3.5,11.2 3.5,10.9375 L3.5,5.6875 C3.5,5.425 3.675,5.25 3.9375,5.25 C4.2,5.25 4.375,5.425 4.375,5.6875 L4.375,10.9375 C4.375,11.2 4.2,11.375 3.9375,11.375 Z M7.4375,11.375 C7.175,11.375 7,11.2 7,10.9375 L7,2.1875 C7,1.925 7.175,1.75 7.4375,1.75 C7.7,1.75 7.875,1.925 7.875,2.1875 L7.875,10.9375 C7.875,11.2 7.7,11.375 7.4375,11.375 Z M10.9375,11.375 C10.675,11.375 10.5,11.2 10.5,10.9375 L10.5,3.9375 C10.5,3.675 10.675,3.5 10.9375,3.5 C11.2,3.5 11.375,3.675 11.375,3.9375 L11.375,10.9375 C11.375,11.2 11.2,11.375 10.9375,11.375 Z" id="形状" fill="#C4C6CC"></path>
                    </g>
                </g>
            </g>
        </g>
    </g>
</svg>