<?xml version="1.0" encoding="UTF-8"?>
<svg width="16px" height="16px" viewBox="0 0 16 16" version="1.1" xmlns="http://www.w3.org/2000/svg" xmlns:xlink="http://www.w3.org/1999/xlink">
    <title>-mockplus-</title>
    <g id="基础设施" stroke="none" stroke-width="1" fill="none" fill-rule="evenodd">
        <g id="功能菜单页面" transform="translate(-504.000000, -586.000000)" fill-rule="nonzero">
            <g id="-mockplus-dup-|D8F40761-BC9A-4DF2-8515-8AAF125CCA43|3.数据录入/4.Input输入框/中-已输入-带图标备份-17" transform="translate(492.000000, 578.000000)">
                <g id="-mockplus-dup-|CA0B8A76-EA4D-4326-9868-B9959310A77E|✏️Icon" transform="translate(12.000000, 8.000000)">
                    <g id="ZiYuanRuYun" transform="translate(1.000000, 1.000000)">
                        <rect id="矩形" fill="#000000" opacity="0" x="0" y="0" width="14" height="14"></rect>
                        <path d="M10.0625,3.5 L3.9375,3.5 C3.675,3.5 3.5,3.675 3.5,3.9375 C3.5,4.2 3.675,4.375 3.9375,4.375 L10.0625,4.375 C10.325,4.375 10.5,4.2 10.5,3.9375 C10.5,3.675 10.325,3.5 10.0625,3.5 Z M6.5625,7 L3.9375,7 C3.675,7 3.5,7.175 3.5,7.4375 C3.5,7.7 3.675,7.875 3.9375,7.875 L6.5625,7.875 C6.825,7.875 7,7.7 7,7.4375 C7,7.175 6.825,7 6.5625,7 Z" id="形状" fill="#C4C6CC"></path>
                        <path d="M12.03125,0 C12.64375,0 13.125,0.48125 13.125,1.1375 L13.125,5.6875 C13.125,5.95 12.95,6.125 12.6875,6.125 C12.425,6.125 12.25,5.95 12.25,5.6875 L12.25,1.1375 C12.25,1.00625 12.11875,0.875 11.9875,0.875 L2.0125,0.875 C1.88125,0.875 1.75,1.00625 1.75,1.1375 L1.75,12.90625 C1.75,12.99375 1.88125,13.125 2.0125,13.125 L5.6875,13.125 C5.95,13.125 6.125,13.3 6.125,13.5625 C6.125,13.825 5.95,14 5.6875,14 L2.0125,14 C1.35625,14 0.875,13.51875 0.875,12.8625 L0.875,1.1375 C0.875,0.48125 1.35625,0 2.0125,0 L12.03125,0 Z M9.75625,6.95625 C10.63125,6.95625 11.375,7.4375 11.8125,8.26875 C13.0375,8.4875 13.9125,9.66875 13.9125,11.06875 C14,12.6875 12.775,14 11.33125,14 L8.18125,14 C6.95625,13.9125 5.99375,12.81875 5.99375,11.50625 C5.99375,10.5 6.51875,9.625 7.35,9.23125 C7.56875,7.9625 8.575,6.95625 9.75625,6.95625 Z M9.8,7.875 C9.0125,7.875 8.3125,8.61875 8.26875,9.58125 C8.26875,9.75625 8.1375,9.93125 7.9625,9.975 C7.35,10.19375 6.9125,10.80625 6.9125,11.50625 C6.9125,12.38125 7.525,13.08125 8.26875,13.125 L11.33125,13.125 C12.29375,13.125 13.08125,12.20625 13.08125,11.15625 C13.08125,10.10625 12.38125,9.23125 11.50625,9.1875 C11.33125,9.1875 11.2,9.05625 11.1125,8.925 C10.9375,8.26875 10.36875,7.875 9.8,7.875 Z" id="形状结合" fill="#C4C6CC"></path>
                    </g>
                </g>
            </g>
        </g>
    </g>
</svg>