<?xml version="1.0" encoding="UTF-8"?>
<svg width="16px" height="16px" viewBox="0 0 16 16" version="1.1" xmlns="http://www.w3.org/2000/svg" xmlns:xlink="http://www.w3.org/1999/xlink">
    <title>-mockplus-</title>
    <g id="基础设施" stroke="none" stroke-width="1" fill="none" fill-rule="evenodd">
        <g id="功能菜单页面" transform="translate(-16.000000, -229.000000)" fill-rule="nonzero">
            <g id="-mockplus-dup-|459C3D84-993E-441A-AB4A-E75213BA1A40|2.导航/4.Menu导航菜单/框架/2.侧边栏-展开-Portal-Slider-b.未选中备份" transform="translate(0.000000, 215.000000)">
                <g id="-mockplus-dup-|0F5F94D7-994E-486D-B4E0-C41B1F452288|1.通用/2.Icon图标/WinCloud/存储" transform="translate(16.000000, 14.000000)">
                    <g id="1.通用/2.Icon图标/WinCloud/存储" transform="translate(1.000000, 1.000000)">
                        <g id="FuWuShenQing" transform="translate(0.197605, 0.005988)">
                            <rect id="矩形" fill="#000000" opacity="0" x="0" y="0" width="13.6207585" height="13.6207585"></rect>
                            <path d="M10.9123688,4.82235529 C11.0375378,4.82235529 11.1627068,4.86409 11.2878759,4.94755943 L11.2878759,4.94755943 L13.2905801,6.49174379 C13.4574722,6.61694792 13.5409182,6.74215206 13.5409182,6.90909091 C13.5409182,7.07602976 13.4991952,7.24296861 13.4157491,7.36817275 L13.4157491,7.36817275 L8.90966454,13.1692978 C8.86794154,13.2527672 8.82621853,13.2945019 8.74277252,13.2945019 L8.74277252,13.2945019 L6.19766918,14.003992 L6.11422317,14.003992 C6.03077716,14.003992 5.94733114,13.9622573 5.90560814,13.9205226 C5.82216213,13.8787879 5.78043912,13.7535837 5.78043912,13.6701143 L5.78043912,13.6701143 L5.86388513,11.0408274 C5.86388513,10.9990927 5.90560814,10.9156233 5.94733114,10.8738886 L5.94733114,10.8738886 L10.4116927,5.07276356 C10.5368618,4.90582471 10.6620308,4.82235529 10.8289228,4.82235529 L10.8289228,4.82235529 Z M12.1817315,10.5713004 C12.4319741,10.5713004 12.5988024,10.7381446 12.5988024,10.9884108 L12.5988024,10.9884108 L12.5988024,12.6568524 C12.5988024,13.3659401 12.0566103,13.9081836 11.3475898,13.9081836 L11.3475898,13.9081836 L9.67930643,13.9081836 C9.42906392,13.9081836 9.26223558,13.7413395 9.26223558,13.4910732 C9.26223558,13.240807 9.42906392,13.0739628 9.67930643,13.0739628 L9.67930643,13.0739628 L11.3475898,13.0739628 C11.5978323,13.0739628 11.7646607,12.9071187 11.7646607,12.6568524 L11.7646607,12.6568524 L11.7646607,10.9884108 C11.7646607,10.7381446 11.931489,10.5713004 12.1817315,10.5713004 Z M11.3498717,0.574850299 C12.0575991,0.574850299 12.5988024,1.11594011 12.5988024,1.8235191 L12.5988024,1.8235191 L12.5988024,3.48841082 C12.5988024,3.73814458 12.4322783,3.90463376 12.1824922,3.90463376 C11.932706,3.90463376 11.7661819,3.73814458 11.7661819,3.48841082 L11.7661819,3.48841082 L11.7661819,1.8235191 C11.7661819,1.57378534 11.5996578,1.40729616 11.3498717,1.40729616 L11.3498717,1.40729616 L2.19104648,1.40729616 C1.94126034,1.40729616 1.77473624,1.57378534 1.77473624,1.8235191 L1.77473624,1.8235191 L1.77473624,12.6453153 C1.77473624,12.8950491 1.94126034,13.0615383 2.19104648,13.0615383 L2.19104648,13.0615383 L4.6889079,13.0615383 C4.93869404,13.0615383 5.10521814,13.2280274 5.10521814,13.4777612 C5.10521814,13.727495 4.93869404,13.8939841 4.6889079,13.8939841 L4.6889079,13.8939841 L2.19104648,13.8939841 C1.48331908,13.8939841 0.942115768,13.3528943 0.942115768,12.6453153 L0.942115768,12.6453153 L0.942115768,1.8235191 C0.942115768,1.11594011 1.48331908,0.574850299 2.19104648,0.574850299 L2.19104648,0.574850299 Z M6.68801234,11.2608714 L6.60481235,13.051717 L8.31041214,12.5519461 L6.68801234,11.2608714 Z M9.85566347,7.21014936 L7.23019894,10.5919693 L8.89716055,11.8862461 L11.5226251,8.50442613 L9.85566347,7.21014936 Z M10.9527997,5.74620419 L10.3287052,6.54014571 L11.9929571,7.835524 L12.6170516,7.04158247 L10.9527997,5.74620419 Z" id="形状结合" fill="#C4C6CC"></path>
                            <path d="M9.73852295,3.96806387 L3.89820359,3.96806387 C3.64790419,3.96806387 3.48103792,3.8003992 3.48103792,3.5489022 C3.48103792,3.29740519 3.64790419,3.12974052 3.89820359,3.12974052 L9.73852295,3.12974052 C9.98882236,3.12974052 10.1556886,3.29740519 10.1556886,3.5489022 C10.1556886,3.8003992 9.98882236,3.96806387 9.73852295,3.96806387 Z M6.4011976,6.48303393 L3.89820359,6.48303393 C3.64790419,6.48303393 3.48103792,6.31536926 3.48103792,6.06387226 C3.48103792,5.81237525 3.64790419,5.64471058 3.89820359,5.64471058 L6.4011976,5.64471058 C6.65149701,5.64471058 6.81836327,5.81237525 6.81836327,6.06387226 C6.81836327,6.31536926 6.65149701,6.48303393 6.4011976,6.48303393 Z" id="形状" fill="#C4C6CC"></path>
                        </g>
                    </g>
                </g>
            </g>
        </g>
    </g>
</svg>