<?xml version="1.0" encoding="UTF-8"?>
<svg width="16px" height="16px" viewBox="0 0 16 16" version="1.1" xmlns="http://www.w3.org/2000/svg" xmlns:xlink="http://www.w3.org/1999/xlink">
    <title>-mockplus-</title>
    <g id="基础设施" stroke="none" stroke-width="1" fill="none" fill-rule="evenodd">
        <g id="功能菜单页面" transform="translate(-504.000000, -682.000000)" fill-rule="nonzero">
            <g id="-mockplus-dup-|D03B553D-AD3D-4370-96F4-5B72A586E42B|3.数据录入/4.Input输入框/中-已输入-带图标备份-20" transform="translate(492.000000, 674.000000)">
                <g id="-mockplus-dup-|FEC3BEBF-74B7-4D71-AF9E-FF3BABCBFD15|✏️Icon" transform="translate(12.000000, 8.000000)">
                    <g id="RuanJian" transform="translate(1.000000, 1.000000)">
                        <rect id="矩形" fill="#000000" opacity="0" x="0" y="0" width="14" height="14"></rect>
                        <path d="M5.25,4.8125 C4.2,4.8125 3.325,5.55625 3.10625,6.5625 L1.3125,6.5625 L1.3125,7.4375 L3.10625,7.4375 C3.325,8.44375 4.2,9.1875 5.25,9.1875 C6.475,9.1875 7.4375,8.225 7.4375,7 C7.4375,5.775 6.475,4.8125 5.25,4.8125 Z M5.25,8.3125 C4.50625,8.3125 3.9375,7.74375 3.9375,7 C3.9375,6.25625 4.50625,5.6875 5.25,5.6875 C5.99375,5.6875 6.5625,6.25625 6.5625,7 C6.5625,7.74375 5.99375,8.3125 5.25,8.3125 Z" id="形状" fill="#C4C6CC"></path>
                        <path d="M12.25,0.4375 L1.75,0.4375 C1.00625,0.4375 0.4375,1.00625 0.4375,1.75 L0.4375,12.25 C0.4375,12.99375 1.00625,13.5625 1.75,13.5625 L12.25,13.5625 C12.99375,13.5625 13.5625,12.99375 13.5625,12.25 L13.5625,1.75 C13.5625,1.00625 12.99375,0.4375 12.25,0.4375 Z M12.6875,6.5625 L10.89375,6.5625 C10.675,5.075 9.40625,3.9375 7.875,3.9375 L7.875,4.8125 C9.1,4.8125 10.0625,5.775 10.0625,7 C10.0625,8.225 9.1,9.1875 7.875,9.1875 L7.875,10.0625 C9.40625,10.0625 10.675,8.925 10.89375,7.4375 L12.6875,7.4375 L12.6875,12.25 C12.6875,12.5125 12.5125,12.6875 12.25,12.6875 L1.75,12.6875 C1.4875,12.6875 1.3125,12.5125 1.3125,12.25 L1.3125,1.75 C1.3125,1.4875 1.4875,1.3125 1.75,1.3125 L12.25,1.3125 C12.5125,1.3125 12.6875,1.4875 12.6875,1.75 L12.6875,6.5625 Z" id="形状" fill="#C4C6CC"></path>
                    </g>
                </g>
            </g>
        </g>
    </g>
</svg>