<?xml version="1.0" encoding="UTF-8"?>
<svg width="16px" height="16px" viewBox="0 0 16 16" version="1.1" xmlns="http://www.w3.org/2000/svg" xmlns:xlink="http://www.w3.org/1999/xlink">
    <title>-mockplus-</title>
    <g id="基础设施" stroke="none" stroke-width="1" fill="none" fill-rule="evenodd">
        <g id="功能菜单页面" transform="translate(-276.000000, -618.000000)" fill-rule="nonzero">
            <g id="-mockplus-dup-|BAF3BA95-5B04-4E8C-B77A-D4618D952C9E|3.数据录入/4.Input输入框/中-已输入-带图标备份-8" transform="translate(264.000000, 610.000000)">
                <g id="-mockplus-dup-|1E9EBC5D-7171-4EF8-893E-C7130C463E99|✏️Icon" transform="translate(12.000000, 8.000000)">
                    <g id="✏️Icon" transform="translate(1.000000, 1.000000)">
                        <rect id="矩形" fill="#000000" opacity="0" x="0" y="0" width="14" height="14"></rect>
                        <path d="M9.1875,0 C9.75625,0 10.2375,0.35 10.4125,0.875 L10.4125,0.875 L11.8125,0.875 C12.55625,0.875 13.125,1.44375 13.125,2.1875 L13.125,2.1875 L13.125,12.6875 C13.125,13.43125 12.55625,14 11.8125,14 L11.8125,14 L2.1875,14 C1.44375,14 0.875,13.43125 0.875,12.6875 L0.875,12.6875 L0.875,2.1875 C0.875,1.44375 1.44375,0.875 2.1875,0.875 L2.1875,0.875 L3.5875,0.875 C3.7625,0.35 4.24375,0 4.8125,0 L4.8125,0 Z M3.5875,1.75 L2.1875,1.75 C1.925,1.75 1.75,1.925 1.75,2.1875 L1.75,2.1875 L1.75,12.6875 C1.75,12.95 1.925,13.125 2.1875,13.125 L2.1875,13.125 L11.8125,13.125 C12.075,13.125 12.25,12.95 12.25,12.6875 L12.25,12.6875 L12.25,2.1875 C12.25,1.925 12.075,1.75 11.8125,1.75 L11.8125,1.75 L10.4125,1.75 C10.2375,2.275 9.75625,2.625 9.1875,2.625 L9.1875,2.625 L4.8125,2.625 C4.24375,2.625 3.7625,2.275 3.5875,1.75 L3.5875,1.75 Z M10.671875,9.265625 C10.9480174,9.265625 11.171875,9.48948263 11.171875,9.765625 C11.171875,10.039006 10.9524721,10.2611426 10.6801434,10.265558 L5.984375,10.265625 C5.70823263,10.265625 5.484375,10.0417674 5.484375,9.765625 C5.484375,9.49224405 5.70377786,9.27010738 5.97610659,9.26569199 L10.671875,9.265625 Z M3.796875,9.265625 C4.07301737,9.265625 4.296875,9.48948263 4.296875,9.765625 C4.296875,10.0417674 4.07301737,10.265625 3.796875,10.265625 C3.52073263,10.265625 3.296875,10.0417674 3.296875,9.765625 C3.296875,9.48948263 3.52073263,9.265625 3.796875,9.265625 Z M10.671875,6.859375 C10.9480174,6.859375 11.171875,7.08323263 11.171875,7.359375 C11.171875,7.63275595 10.9524721,7.85489262 10.6801434,7.85930801 L5.984375,7.859375 C5.70823263,7.859375 5.484375,7.63551737 5.484375,7.359375 C5.484375,7.08599405 5.70377786,6.86385738 5.97610659,6.85944199 L10.671875,6.859375 Z M3.796875,6.859375 C4.07301737,6.859375 4.296875,7.08323263 4.296875,7.359375 C4.296875,7.63551737 4.07301737,7.859375 3.796875,7.859375 C3.52073263,7.859375 3.296875,7.63551737 3.296875,7.359375 C3.296875,7.08323263 3.52073263,6.859375 3.796875,6.859375 Z M9.1875,0.875 L4.8125,0.875 C4.55,0.875 4.375,1.05 4.375,1.3125 C4.375,1.575 4.55,1.75 4.8125,1.75 L4.8125,1.75 L9.1875,1.75 C9.45,1.75 9.625,1.575 9.625,1.3125 C9.625,1.05 9.45,0.875 9.1875,0.875 L9.1875,0.875 Z" id="形状结合" fill="#C4C6CC"></path>
                        <path d="M10.671875,4.453125 C10.9480174,4.453125 11.171875,4.67698263 11.171875,4.953125 C11.171875,5.22650595 10.9524721,5.44864262 10.6801434,5.45305801 L10.671875,5.453125 L5.984375,5.453125 C5.70823263,5.453125 5.484375,5.22926737 5.484375,4.953125 C5.484375,4.67974405 5.70377786,4.45760738 5.97610659,4.45319199 L10.671875,4.453125 Z M3.796875,4.453125 C4.07301737,4.453125 4.296875,4.67698263 4.296875,4.953125 C4.296875,5.22926737 4.07301737,5.453125 3.796875,5.453125 C3.52073263,5.453125 3.296875,5.22926737 3.296875,4.953125 C3.296875,4.67698263 3.52073263,4.453125 3.796875,4.453125 Z" id="形状结合" fill="#C4C6CC"></path>
                    </g>
                </g>
            </g>
        </g>
    </g>
</svg>