<?xml version="1.0" encoding="UTF-8"?>
<svg width="16px" height="16px" viewBox="0 0 16 16" version="1.1" xmlns="http://www.w3.org/2000/svg" xmlns:xlink="http://www.w3.org/1999/xlink">
    <title>-mockplus-</title>
    <g id="基础设施" stroke="none" stroke-width="1" fill="none" fill-rule="evenodd">
        <g id="功能菜单页面" transform="translate(-504.000000, -297.000000)" fill-rule="nonzero">
            <g id="-mockplus-dup-|9BF2723A-3C88-4BBB-8F89-1D4F11756B77|3.数据录入/4.Input输入框/中-已输入-带图标备份-10" transform="translate(492.000000, 289.000000)">
                <g id="-mockplus-dup-|5D0139CE-16F1-4FC7-AA54-D327CCFD5AC5|✏️Icon" transform="translate(12.000000, 8.000000)">
                    <g id="VDC" transform="translate(1.000000, 1.000000)">
                        <rect id="矩形" fill="#000000" opacity="0" x="0" y="0" width="14" height="14"></rect>
                        <path d="M6.96855469,13.1208984 C6.23300781,13.0785156 5.578125,12.7490234 5.10917969,12.2445312 C4.38183594,12.2431641 3.82949219,12.2417969 3.73378906,12.2417969 C2.13007813,12.1337891 0.875,10.6681641 0.875,8.89902344 C0.875,7.42929687 1.76914063,6.10722656 3.04882812,5.68476562 C3.21835937,5.62871094 3.33730469,5.47558594 3.34824219,5.29648437 C3.47265625,3.30859375 4.89726563,1.75136719 6.58984375,1.75136719 C7.82441406,1.75136719 8.93867187,2.56347656 9.49648437,3.86914062 C9.56074219,4.02089844 9.70429688,4.12207031 9.86835938,4.134375 C11.5390625,4.24921875 12.8789062,5.74902344 13.0935547,7.64941406 C13.1208984,7.678125 13.1482422,7.70820312 13.1755859,7.73828125 C13.5351562,8.14160156 13.7839844,8.62832031 13.9083984,9.1546875 C13.9685547,8.8375 14,8.51484375 14,8.18808594 C14,6.93164062 13.5857422,5.73535156 12.8351562,4.81933594 C12.1337891,3.96484375 11.2041016,3.42753906 10.1923828,3.28808594 C9.86289063,2.61542969 9.39257812,2.04394531 8.82246094,1.62421875 C8.15800781,1.13476562 7.38554688,0.876367187 6.58984375,0.876367187 C5.52753906,0.876367187 4.51992188,1.334375 3.7515625,2.165625 C3.06386719,2.909375 2.625,3.89238281 2.50195312,4.95605469 C2.20253906,5.08183594 1.91953125,5.24589844 1.65703125,5.446875 C1.32070312,5.70527344 1.02539062,6.015625 0.779296875,6.37109375 C0.269335938,7.10527344 0,7.98027344 0,8.89902344 C0,9.97910156 0.37734375,11.0058594 1.06230469,11.790625 C1.75273437,12.5822266 2.68652344,13.0525391 3.69140625,13.1167969 C3.70097656,13.1167969 3.70917969,13.1181641 3.71875,13.1181641 C3.94980469,13.1181641 9.39257812,13.1291016 9.46230469,13.1291016 C9.5046875,13.1291016 9.5484375,13.1277344 9.59082031,13.1263672 C8.50664063,13.125 7.08886719,13.1222656 6.99453125,13.1222656 C6.98496094,13.1222656 6.97675781,13.1222656 6.96855469,13.1208984 Z" id="路径" fill="#C4C6CC"></path>
                        <path d="M13.9097656,9.15332031 C13.7853516,8.62695312 13.5365234,8.14023437 13.1769531,7.73691406 C13.1496094,7.70683594 13.1222656,7.67675781 13.0949219,7.64804687 C12.6314453,7.16542969 12.0394531,6.85644531 11.3982422,6.759375 C11.1685547,6.35332031 10.8513672,6.00742187 10.4712891,5.75039062 C10.0050781,5.43457031 9.46503906,5.26777344 8.90859375,5.26777344 C8.16621094,5.26777344 7.459375,5.56308594 6.92070313,6.10039062 C6.45859375,6.56113281 6.15507813,7.16132812 6.05117188,7.81621094 C5.60820313,8.00625 5.21308594,8.3125 4.921875,8.69941406 C4.55820313,9.18203125 4.36679688,9.75625 4.36679688,10.3619141 C4.36679688,11.0865234 4.64707031,11.7496094 5.10917969,12.2445312 C5.578125,12.7476562 6.23300781,13.0771484 6.96855469,13.1208984 C6.97675781,13.1208984 6.98496094,13.1222656 6.99316406,13.1222656 C7.08886719,13.1222656 8.50664063,13.125 9.58945312,13.1263672 C10.2621094,13.1277344 10.8076172,13.1291016 10.8240234,13.1291016 C11.6306641,13.1291016 12.4386719,12.7873047 13.0388672,12.1925781 C13.6568359,11.5787109 13.9986328,10.7748047 13.9986328,9.92714844 C13.9986328,9.66328125 13.9685547,9.40488281 13.9097656,9.15332031 L13.9097656,9.15332031 Z M9.5703125,12.2513672 C8.51484375,12.25 7.15585938,12.2472656 7.00683594,12.2472656 C6.015625,12.1830078 5.24179688,11.3585938 5.24179688,10.3632812 C5.24179688,9.52382812 5.78046875,8.79648437 6.58164063,8.553125 C6.75547673,8.49989074 6.8784055,8.34486995 6.890625,8.16347656 C6.9671875,7.03007812 7.853125,6.14277344 8.90722656,6.14277344 C9.67832031,6.14277344 10.3714844,6.60625 10.7173828,7.35273437 C10.784375,7.49765625 10.9265625,7.59472656 11.0865234,7.60566406 C11.9833984,7.66171875 12.7257813,8.30292969 13.0046875,9.17109375 C13.0798828,9.40761719 13.1222656,9.66191406 13.1222656,9.92578125 C13.1222656,11.1658203 12.0476563,12.2527344 10.8226563,12.2527344 C10.8076172,12.2541016 10.2525391,12.2527344 9.5703125,12.2513672 L9.5703125,12.2513672 Z" id="形状" fill="#C4C6CC"></path>
                    </g>
                </g>
            </g>
        </g>
    </g>
</svg>