<?xml version="1.0" encoding="UTF-8"?>
<svg width="16px" height="16px" viewBox="0 0 16 16" version="1.1" xmlns="http://www.w3.org/2000/svg" xmlns:xlink="http://www.w3.org/1999/xlink">
    <title>-mockplus-</title>
    <g id="基础设施" stroke="none" stroke-width="1" fill="none" fill-rule="evenodd">
        <g id="功能菜单页面" transform="translate(-504.000000, -361.000000)" fill-rule="nonzero">
            <g id="-mockplus-dup-|C5614504-3D58-40A0-9F2C-0D850FB8F6D9|3.数据录入/4.Input输入框/中-已输入-带图标备份-12" transform="translate(492.000000, 353.000000)">
                <g id="-mockplus-dup-|702A5794-B1A5-4E67-B121-9082592C7A4C|✏️Icon" transform="translate(12.000000, 8.000000)">
                    <g id="ZiYuanShiLi" transform="translate(1.000000, 1.000000)">
                        <rect id="矩形" fill="#000000" opacity="0" x="0" y="0" width="14" height="14"></rect>
                        <path d="M4.33125,4.375 L9.7125,4.375 C9.93125,4.375 10.10625,4.2 10.10625,3.9375 C10.10625,3.675 9.93125,3.5 9.7125,3.5 L4.33125,3.5 C4.1125,3.5 3.9375,3.675 3.9375,3.9375 C3.9375,4.2 4.1125,4.375 4.33125,4.375 Z M10.54375,6.125 L3.45625,6.125 C3.2375,6.125 3.0625,6.3 3.0625,6.5625 C3.0625,6.825 3.2375,7 3.45625,7 L10.54375,7 C10.7625,7 10.9375,6.825 10.9375,6.5625 C10.9375,6.3 10.7625,6.125 10.54375,6.125 Z" id="形状" fill="#C4C6CC"></path>
                        <path d="M14,9.14375 L12.38125,1.05 C12.25,0.4375 11.725,0 11.1125,0 L2.8875,0 C2.275,0 1.75,0.4375 1.61875,1.05 L0,9.14375 L0,12.6875 C0,13.43125 0.56875,14 1.3125,14 L12.6875,14 C13.43125,14 14,13.43125 14,12.6875 L14,9.14375 Z M2.49375,1.225 C2.5375,1.00625 2.7125,0.875 2.8875,0.875 L11.06875,0.875 C11.2875,0.875 11.4625,1.00625 11.50625,1.225 L13.0375,8.75 L8.3125,8.75 C8.05,8.75 7.875,8.925 7.875,9.1875 L7.875,10.0625 L6.125,10.0625 L6.125,9.1875 C6.125,8.925 5.95,8.75 5.6875,8.75 L0.9625,8.75 L2.49375,1.225 Z M13.125,12.6875 C13.125,12.95 12.95,13.125 12.6875,13.125 L1.3125,13.125 C1.05,13.125 0.875,12.95 0.875,12.6875 L0.875,9.625 L5.25,9.625 L5.25,10.325 C5.25,10.675 5.5125,10.9375 5.8625,10.9375 L8.1375,10.9375 C8.4875,10.9375 8.75,10.675 8.75,10.325 L8.75,9.625 L13.125,9.625 L13.125,12.6875 Z" id="形状" fill="#C4C6CC"></path>
                    </g>
                </g>
            </g>
        </g>
    </g>
</svg>