<?xml version="1.0" encoding="UTF-8"?>
<svg width="16px" height="16px" viewBox="0 0 16 16" version="1.1" xmlns="http://www.w3.org/2000/svg" xmlns:xlink="http://www.w3.org/1999/xlink">
    <title>-mockplus-</title>
    <g id="基础设施" stroke="none" stroke-width="1" fill="none" fill-rule="evenodd">
        <g id="功能菜单页面" transform="translate(-504.000000, -393.000000)" fill-rule="nonzero">
            <g id="-mockplus-dup-|D40794A7-C4BB-494C-881F-635E74CB35C1|3.数据录入/4.Input输入框/中-已输入-带图标备份-13" transform="translate(492.000000, 385.000000)">
                <g id="-mockplus-dup-|08C214F2-43FA-4CAB-B46B-62C540E4909F|✏️Icon" transform="translate(12.000000, 8.000000)">
                    <g id="VPC" transform="translate(1.000000, 1.000000)">
                        <rect id="矩形" fill="#000000" opacity="0" x="0" y="0" width="13.9863415" height="13.9863415"></rect>
                        <path d="M13.9877073,8.73326829 C13.9877073,8.63902439 13.9849756,8.54341463 13.9781463,8.45053659 C13.9822439,8.36039024 13.9849756,8.26887805 13.9849756,8.17736585 C13.9849756,6.92214634 13.571122,5.72702439 12.8212683,4.81190244 C12.1205854,3.9582439 11.1918049,3.42146341 10.1810732,3.28214634 C9.85190244,2.61014634 9.38204878,2.03921951 8.8124878,1.61990244 C8.15004878,1.13092683 7.37834146,0.872780488 6.58341463,0.872780488 C5.52214634,0.872780488 4.5155122,1.33034146 3.74790244,2.16078049 C3.0595122,2.90517073 2.62243902,3.88585366 2.49814634,4.94985366 C2.19902439,5.0755122 1.91629268,5.23941463 1.65404878,5.44019512 C1.31804878,5.69697561 1.02302439,6.00702439 0.777170732,6.36214634 C0.269073171,7.09560976 0,7.96839024 0,8.88760976 C0,9.96526829 0.37697561,10.9923902 1.06126829,11.7763902 C1.75102439,12.5672195 2.68390244,13.0370732 3.68780488,13.1012683 C3.69736585,13.1012683 3.70556098,13.1026341 3.71512195,13.1026341 C3.94595122,13.1026341 9.38341463,13.113561 9.45307317,13.113561 C9.55414634,13.113561 9.65658537,13.1094634 9.75765854,13.1012683 C10.873561,13.067122 11.9170732,12.6163902 12.7092683,11.8228293 C13.5342439,10.9978537 13.9877073,9.90107317 13.9877073,8.73326829 Z M11.5605854,11.638439 C11.0046829,12.0113171 10.3354146,12.2298537 9.61697561,12.2298537 L9.60195122,12.2298537 C9.26458537,12.2284878 8.93814634,12.1793171 8.63082927,12.0878049 C8.54068293,12.1410732 8.45190244,12.1902439 8.3644878,12.2380488 C6.76780488,12.2353171 3.95414634,12.2298537 3.73014634,12.2284878 C2.128,12.1192195 0.874146341,10.6550244 0.874146341,8.88760976 C0.874146341,7.41931707 1.76741463,6.09853659 3.04585366,5.6764878 C3.21521951,5.6204878 3.33404878,5.4675122 3.34497561,5.28858537 C3.46926829,3.30263415 4.89112195,1.74692683 6.58341463,1.74692683 C7.81678049,1.74692683 8.92995122,2.5582439 9.48721951,3.86263415 C9.55141463,4.0142439 9.69482927,4.11531707 9.85873171,4.12760976 C10.5211707,4.17268293 11.1317073,4.43629268 11.6411707,4.85697561 C11.6316098,4.8515122 11.6220488,4.84741463 11.6124878,4.84195122 C11.4513171,4.75863415 11.2833171,4.6862439 11.1125854,4.62341463 C10.64,4.45131707 10.1346341,4.36117073 9.61560976,4.36117073 C8.44780488,4.36117073 7.35102439,4.816 6.52468293,5.64097561 C5.69970732,6.46595122 5.24487805,7.56409756 5.24487805,8.73190244 C5.24487805,9.24273171 5.33229268,9.73990244 5.49892683,10.2070244 C5.5617561,10.3845854 5.63687805,10.5566829 5.72292683,10.7246829 C5.81307317,10.8995122 5.91414634,11.0675122 6.0275122,11.2300488 C6.05619512,11.2710244 6.08487805,11.3106341 6.11492683,11.3502439 C6.216,11.4854634 6.32663415,11.6152195 6.44409756,11.7395122 C6.47004878,11.7668293 6.49736585,11.7941463 6.52331707,11.8214634 C6.53697561,11.835122 6.55063415,11.8487805 6.56565854,11.862439 C6.60390244,11.8733659 6.65307317,11.8801951 6.71317073,11.8801951 C6.9084878,11.8801951 7.21717073,11.8132683 7.64195122,11.6165854 L7.64058537,11.6165854 C7.5217561,11.5346341 7.40839024,11.4472195 7.3004878,11.3516098 C7.06829268,11.1467317 6.86478049,10.9118049 6.69268293,10.6522927 C6.60663415,10.5225366 6.52878049,10.3873171 6.46185366,10.2452683 C6.37034146,10.0554146 6.29521951,9.85463415 6.23785366,9.64702439 C6.19004878,9.47356098 6.15590244,9.296 6.13678049,9.11297561 C6.12312195,8.98731707 6.11629268,8.85892683 6.11629268,8.72917073 C6.11629268,6.80058537 7.68429268,5.23258537 9.61287805,5.23258537 C9.74673171,5.23258537 9.88058537,5.24078049 10.0103415,5.25580488 C10.1892683,5.27629268 10.3627317,5.31043902 10.5320976,5.3555122 C10.7438049,5.41287805 10.9486829,5.49073171 11.1426341,5.58634146 C11.2792195,5.65326829 11.4103415,5.72839024 11.536,5.81170732 C11.9102439,6.05892683 12.2339512,6.37580488 12.488,6.74458537 L12.4961951,6.75687805 C12.5863415,6.56156098 12.6478049,6.39082927 12.6901463,6.24468293 C12.8772683,6.64897561 13.0070244,7.09287805 13.067122,7.56273171 C13.0343415,7.62146341 13.0001951,7.68156098 12.9660488,7.74165854 C12.9947317,7.83863415 13.0193171,7.93560976 13.0398049,8.03531707 C13.084878,8.25931707 13.1094837,8.4915122 13.1094837,8.72917073 C13.113561,9.94204878 12.497561,11.0101463 11.5605854,11.638439 L11.5605854,11.638439 Z" id="形状" fill="#C4C6CC"></path>
                        <path d="M13.3225366,4.99082927 C13.057561,4.72585366 12.553561,4.5155122 11.6138537,4.84331707 C11.796878,4.93756098 11.9730732,5.04409756 12.1410732,5.16429268 C12.3131707,5.28721951 12.4770732,5.42243902 12.6327805,5.56995122 C12.6641951,5.5795122 12.6887805,5.59317073 12.7038049,5.60956098 C12.7188293,5.62458537 12.7324878,5.64780488 12.7420488,5.67921951 C12.7939512,5.83629268 12.7611707,6.1955122 12.5016585,6.76097561 C12.478439,6.81014634 12.4552195,6.86204878 12.4279024,6.91395122 C12.0195122,7.73346341 11.3092683,8.67043902 10.4282927,9.55004878 C9.54868293,10.4296585 8.61170732,11.1399024 7.79219512,11.5496585 C7.74165854,11.5756098 7.6924878,11.5988293 7.64468293,11.6206829 C7.21990244,11.8146341 6.91121951,11.8829268 6.71726829,11.8829268 C6.65717073,11.8829268 6.608,11.8760976 6.5697561,11.8651707 C6.5342439,11.8542439 6.50692683,11.8405854 6.49053659,11.8228293 C6.47278049,11.8050732 6.45912195,11.7777561 6.44819512,11.740878 C6.33073171,11.6165854 6.22009756,11.4868293 6.11902439,11.3516098 C6.08897561,11.312 6.06029268,11.2723902 6.03160976,11.2314146 C5.9182439,11.068878 5.81717073,10.900878 5.72702439,10.7260488 C5.3964878,11.6698537 5.60682927,12.1752195 5.87317073,12.441561 C6.04253659,12.6109268 6.3075122,12.7570732 6.72,12.7570732 C6.95219512,12.7570732 7.23219512,12.7106341 7.56819512,12.5945366 C7.75668293,12.5303415 7.96156098,12.4429268 8.18692683,12.3309268 C8.33307317,12.2585366 8.48195122,12.1765854 8.63356098,12.0878049 C9.41619512,11.6275122 10.2589268,10.9596098 11.051122,10.1674146 C11.8419512,9.37385366 12.5112195,8.5297561 12.9715122,7.74439024 C13.0589268,7.59414634 13.1395122,7.44663415 13.2119024,7.30321951 C13.3252683,7.0764878 13.4126829,6.86887805 13.476878,6.67902439 C13.795122,5.75297561 13.5861463,5.25443902 13.3225366,4.99082927 L13.3225366,4.99082927 Z" id="路径" fill="#C4C6CC"></path>
                    </g>
                </g>
            </g>
        </g>
    </g>
</svg>