<?xml version="1.0" encoding="UTF-8"?>
<svg width="16px" height="16px" viewBox="0 0 16 16" version="1.1" xmlns="http://www.w3.org/2000/svg" xmlns:xlink="http://www.w3.org/1999/xlink">
    <title>-mockplus-</title>
    <g id="基础设施" stroke="none" stroke-width="1" fill="none" fill-rule="evenodd">
        <g id="功能菜单页面" transform="translate(-276.000000, -361.000000)" fill-rule="nonzero">
            <g id="-mockplus-dup-|67EE3A01-942D-4421-AC27-B902802D5E4E|3.数据录入/4.Input输入框/中-已输入-带图标备份-2" transform="translate(264.000000, 353.000000)">
                <g id="-mockplus-dup-|40D21B10-43E8-4F47-9596-77E5B3525CCF|✏️Icon" transform="translate(12.000000, 8.000000)">
                    <g id="LiuChenSeZhi" transform="translate(1.000000, 1.000000)">
                        <rect id="矩形" fill="#000000" opacity="0" x="0" y="0" width="14" height="14"></rect>
                        <path d="M12.6875,1.75 L4.2875,1.75 C4.1125,0.7875 3.2375,0 2.1875,0 C0.9625,0 0,0.9625 0,2.1875 C0,3.4125 0.9625,4.375 2.1875,4.375 C3.2375,4.375 4.1125,3.5875 4.2875,2.625 L12.6,2.625 C12.8625,2.625 13.125,2.7125 13.125,3.0625 L13.125,5.6875 C13.125,5.8625 13.0375,6.125 12.6875,6.125 L8.6625,6.125 C8.4875,5.1625 7.6125,4.375 6.5625,4.375 C5.3375,4.375 4.375,5.3375 4.375,6.5625 C4.375,6.7375 4.375,6.825 4.4625,7 L1.3125,7 C0.35,7 0,7.7875 0,8.3125 L0,10.9375 C0,11.9 0.7875,12.25 1.3125,12.25 L10.0625,12.25 L10.0625,11.375 L1.3125,11.375 C1.1375,11.375 0.875,11.2875 0.875,10.9375 L0.875,8.3125 C0.875,8.1375 0.9625,7.875 1.3125,7.875 L4.8125,7.875 C5.25,8.4 5.8625,8.75 6.5625,8.75 C7.6125,8.75 8.4875,7.9625 8.6625,7 L12.6875,7 C13.65,7 14,6.2125 14,5.6875 L14,3.0625 C14,2.1 13.2125,1.75 12.6875,1.75 Z M2.1875,3.5 C1.4875,3.5 0.875,2.8875 0.875,2.1875 C0.875,1.4875 1.4875,0.875 2.1875,0.875 C2.8875,0.875 3.5,1.4875 3.5,2.1875 C3.5,2.8875 2.8875,3.5 2.1875,3.5 Z M6.5625,7.875 C5.8625,7.875 5.25,7.2625 5.25,6.5625 C5.25,5.8625 5.8625,5.25 6.5625,5.25 C7.2625,5.25 7.875,5.8625 7.875,6.5625 C7.875,7.2625 7.2625,7.875 6.5625,7.875 Z" id="形状" fill="#C4C6CC"></path>
                        <path d="M11.8125,14 C10.5875,14 9.625,13.0375 9.625,11.8125 C9.625,10.5875 10.5875,9.625 11.8125,9.625 C13.0375,9.625 14,10.5875 14,11.8125 C14,13.0375 13.0375,14 11.8125,14 Z M11.8125,10.5 C11.1125,10.5 10.5,11.1125 10.5,11.8125 C10.5,12.5125 11.1125,13.125 11.8125,13.125 C12.5125,13.125 13.125,12.5125 13.125,11.8125 C13.125,11.1125 12.5125,10.5 11.8125,10.5 Z" id="形状" fill="#C4C6CC"></path>
                    </g>
                </g>
            </g>
        </g>
    </g>
</svg>